<svg xmlns="http://www.w3.org/2000/svg" xmlns:xlink="http://www.w3.org/1999/xlink" version="1.1" id="Layer_1" x="0px" y="0px" viewBox="0 0 262 59" style="enable-background:new 0 0 262 59;" xml:space="preserve"> <style type="text/css"> .st0{fill:#231E1C;} </style> <g> <path class="st0" d="M243.2,57.2l-0.3-0.3v-5.3l0.3-0.3h16.7l0.3,0.3V57l-0.3,0.3H243.2z"></path> <path class="st0" d="M2,57.2L1.7,57v-5.3L2,51.3h226.9l0.3,0.3V57l-0.3,0.3H2z"></path> <path class="st0" d="M25.4,2.4l0.3,0.3l16.5,40.7l-0.3,0.3H36l-0.3-0.3L31.9,34H13.6l-3.8,9.4l-0.3,0.3H3.5l-0.3-0.3L19.8,2.7 l0.3-0.3C20.1,2.4,25.4,2.4,25.4,2.4z M15.9,28.1h13.6l-6.8-17.4L15.9,28.1z"></path> <path class="st0" d="M61.7,2.4c12.7,0,21.8,9.2,21.8,20.7c0,11.5-9.2,20.7-21.8,20.7H47.8l-0.3-0.3V2.7l0.3-0.3H61.7z M53.4,37.9 h8.3c8.9,0,15.1-6.5,15.1-14.8c0-8.3-6.2-14.8-15.1-14.8h-8.3V37.9z"></path> <path class="st0" d="M138.5,12.5c-3.8-3.5-9.4-4.7-14.5-4.7c-9.2,0-15.6,6.8-15.6,15.4c0,8.9,6.8,15.4,15.9,15.4 c3,0,6.2-0.6,9.2-2.1v-10h-8l-0.3-0.3v-5.3l0.3-0.3h13.6l0.3,0.3v19.2c-4.4,3.2-9.7,4.7-15.1,4.7c-12.7,0-22.7-9.4-22.7-21.6 c0-11.8,9.7-21.6,22.4-21.6c5.6,0,10.9,0.9,14.8,3.8v6.8L138.5,12.5z"></path> <path class="st0" d="M151.2,16l0.3,0.3v0.9c2.1-1.2,4.7-2.1,7.4-2.1c1.8,0,3.5,0.3,5.3,1.2l0.3,5.9l-0.3,0.3 c-1.8-1.5-3.8-1.8-5.3-1.8c-3,0-5.9,1.2-7.4,3v19.8l-0.3,0.3h-5.3l-0.3-0.3V16.3l0.3-0.3C145.8,16,151.2,16,151.2,16z"></path> <path class="st0" d="M196.4,29.9c0,8.3-6.5,14.8-14.8,14.8c-8.3,0-14.8-6.5-14.8-14.8s6.5-14.8,14.8-14.8 C189.9,15.1,196.4,21.6,196.4,29.9z M173,29.9c0,5.3,3.5,9.2,8.6,9.2s8.6-3.8,8.6-9.2s-3.5-9.2-8.6-9.2 C176.6,20.7,173,24.6,173,29.9z"></path> <path class="st0" d="M206.7,16l0.3,0.3v15.1c0,4.7,2.4,7.7,7.4,7.7c3,0,5.9-1.2,7.4-3V16.3l0.3-0.3h5.3l0.3,0.3v27.2l-0.3,0.3h-5.3 l-0.3-0.3v-0.9c-2.1,1.2-4.7,2.1-7.4,2.1c-8.9,0-13.3-5-13.3-13V16.3l0.3-0.3C201.4,16,206.7,16,206.7,16z"></path> <path class="st0" d="M238.6,16l0.3,0.3v0.9c1.8-1.2,4.4-2.1,7.1-2.1c8.3,0,14.8,6.5,14.8,14.8s-6.5,14.8-14.8,14.8 c-2.7,0-5.3-0.9-7.1-2.1V57l-0.3,0.3h-5.3L233,57V16.3l0.3-0.3C233.3,16,238.6,16,238.6,16z M238.9,36.1c2.1,2.1,4.4,3,7.1,3 c5,0,8.6-3.8,8.6-9.2s-3.5-9.2-8.6-9.2c-2.7,0-5,1.2-7.1,3V36.1z"></path> </g> </svg>